<svg xmlns="http://www.w3.org/2000/svg" version="1.1" xmlns:xlink="http://www.w3.org/1999/xlink" xmlns:svgjs="http://svgjs.dev/svgjs" width="2000" height="1999" viewBox="0 0 2000 1999"><g transform="matrix(1,0,0,1,-0.431486880466764,-0.4312711370263287)"><svg viewBox="0 0 343 343" data-background-color="#ffffff" preserveAspectRatio="xMidYMid meet" height="1999" width="2000" xmlns="http://www.w3.org/2000/svg" xmlns:xlink="http://www.w3.org/1999/xlink"><g id="tight-bounds" transform="matrix(1,0,0,1,0.0740000000000407,0.07400000000001228)"><svg viewBox="0 0 342.85155851775386 342.85155851775386" height="342.85155851775386" width="342.85155851775386"><g><svg></svg></g><g><svg viewBox="0 0 342.85155851775386 342.85155851775386" height="342.85155851775386" width="342.85155851775386"><g><path d="M0 171.426c0-94.676 76.75-171.426 171.426-171.426 94.676 0 171.426 76.75 171.426 171.426 0 94.676-76.75 171.426-171.426 171.426-94.676 0-171.426-76.75-171.426-171.426zM171.426 338.78c92.427 0 167.354-74.927 167.354-167.354 0-92.427-74.927-167.354-167.354-167.354-92.427 0-167.354 74.927-167.354 167.354 0 92.427 74.927 167.354 167.354 167.354z" data-fill-palette-color="tertiary" fill="#000000" stroke="transparent"></path><ellipse rx="164.56874808852186" ry="164.56874808852186" cx="171.42577925887693" cy="171.42577925887693" fill="#000000" stroke="transparent" stroke-width="0" fill-opacity="1" data-fill-palette-color="tertiary"></ellipse></g><g transform="matrix(1,0,0,1,64.84655864529837,112.3184437573657)"><svg viewBox="0 0 213.1584412271571 118.21467100302246" height="118.21467100302246" width="213.1584412271571"><g><svg viewBox="0 0 213.1584412271571 118.21467100302246" height="118.21467100302246" width="213.1584412271571"><g><svg viewBox="0 0 213.1584412271571 118.21467100302246" height="118.21467100302246" width="213.1584412271571"><g transform="matrix(1,0,0,1,0,73.06140921725977)"><svg viewBox="0 0 213.1584412271571 45.1532617857627" height="45.1532617857627" width="213.1584412271571"><g id="textblocktransform"><svg viewBox="0 0 213.1584412271571 45.1532617857627" height="45.1532617857627" width="213.1584412271571" id="textblock"><g><svg viewBox="0 0 213.1584412271571 45.1532617857627" height="45.1532617857627" width="213.1584412271571"><g transform="matrix(1,0,0,1,0,0)"><svg width="213.1584412271571" viewBox="3.98 -38.57 243.51000000000002 51.58" height="45.1532617857627" data-palette-color="#ffffff"><path d="M36.35-9.55L36.35-9.55Q36.35-8.06 35.86-6.76 35.38-5.47 34.52-4.41 33.67-3.34 32.53-2.51 31.4-1.68 30.09-1.12 28.78-0.56 27.39-0.28 26 0 24.66 0L24.66 0 3.98 0 3.98-35.16 22.88-35.16Q24.12-35.16 25.49-34.97 26.86-34.79 28.16-34.4 29.47-34.01 30.65-33.37 31.84-32.74 32.73-31.82 33.62-30.91 34.14-29.71 34.67-28.52 34.67-26.98L34.67-26.98Q34.67-25.51 34.08-24.32 33.5-23.12 32.51-22.18 31.52-21.24 30.24-20.52 28.96-19.8 27.54-19.26L27.54-19.26Q29.32-18.77 30.92-17.97 32.52-17.16 33.73-15.99 34.94-14.82 35.64-13.22 36.35-11.62 36.35-9.55ZM24.83-26.12L24.83-26.12Q24.83-29.1 23.25-30.47 21.68-31.84 18.77-31.84L18.77-31.84 13.67-31.84 13.67-20.43 17.94-20.43Q19.26-20.43 20.51-20.76 21.75-21.09 22.72-21.79 23.68-22.49 24.26-23.56 24.83-24.63 24.83-26.12ZM26.54-10.16L26.54-10.16Q26.54-11.6 26.17-12.85 25.81-14.11 25.05-15.03 24.29-15.94 23.16-16.47 22.02-16.99 20.48-16.99L20.48-16.99 13.67-16.99 13.67-3.42 19.63-3.42Q21.12-3.42 22.39-3.91 23.66-4.39 24.58-5.27 25.51-6.15 26.03-7.4 26.54-8.64 26.54-10.16ZM69.72-28.2L69.72 0 61.47 0 61.47-3.37Q60.01-1.37 57.94-0.4 55.88 0.56 53.42 0.56L53.42 0.56Q50.19 0.56 47.65-0.59 45.11-1.73 43.36-3.72 41.6-5.71 40.67-8.4 39.74-11.08 39.74-14.16L39.74-14.16Q39.74-17.24 40.67-19.92 41.6-22.61 43.36-24.6 45.11-26.59 47.65-27.73 50.19-28.88 53.42-28.88L53.42-28.88Q55.05-28.88 56.53-28.39 58.01-27.91 59.24-27.01 60.47-26.12 61.41-24.87 62.35-23.61 62.89-22.07L62.89-22.07 66.55-28.2 69.72-28.2ZM61.42-14.16L61.42-14.16Q61.42-15.26 61.31-16.48 61.2-17.7 60.94-18.9 60.67-20.09 60.19-21.18 59.71-22.27 58.97-23.11 58.23-23.95 57.18-24.44 56.13-24.93 54.73-24.93L54.73-24.93Q53.34-24.93 52.32-24.43 51.29-23.93 50.56-23.08 49.83-22.24 49.35-21.14 48.87-20.04 48.61-18.85 48.34-17.65 48.23-16.44 48.12-15.23 48.12-14.16L48.12-14.16Q48.12-13.09 48.23-11.87 48.34-10.64 48.61-9.45 48.87-8.25 49.35-7.15 49.83-6.05 50.56-5.21 51.29-4.37 52.32-3.87 53.34-3.37 54.73-3.37L54.73-3.37Q56-3.37 56.99-3.89 57.98-4.42 58.73-5.3 59.47-6.18 59.98-7.3 60.5-8.42 60.81-9.62 61.13-10.82 61.28-12 61.42-13.18 61.42-14.16ZM105.44-16.16L105.44-16.16Q105.44-13.31 104.74-10.21 104.05-7.1 102.8-4.13 101.56-1.15 99.82 1.48 98.09 4.1 96.02 6.01L96.02 6.01 92.91 4.32Q93.57 3.1 94.16 1.59 94.75 0.07 95.22-1.62 95.7-3.32 96.08-5.13 96.45-6.93 96.71-8.7 96.97-10.47 97.1-12.15 97.24-13.82 97.24-15.26L97.24-15.26Q97.24-16.21 97.16-17.3 97.09-18.38 96.86-19.47 96.63-20.56 96.24-21.56 95.84-22.56 95.2-23.32 94.55-24.07 93.64-24.54 92.72-25 91.47-25L91.47-25Q90.25-25 89.3-24.45 88.35-23.9 87.62-23.01 86.88-22.12 86.36-20.97 85.83-19.82 85.51-18.62 85.18-17.41 85.03-16.24 84.88-15.06 84.88-14.14L84.88-14.14 84.88 0 76.61 0 76.61-28.2 79.78-28.2 83.56-21.63Q84.25-23.27 85.27-24.61 86.3-25.95 87.59-26.9 88.89-27.86 90.46-28.37 92.04-28.88 93.87-28.88L93.87-28.88Q96.8-28.88 98.97-27.93 101.14-26.98 102.58-25.28 104.02-23.58 104.73-21.25 105.44-18.92 105.44-16.16ZM119.13-9.47L119.13 0 110.88 0 110.88-38.57 119.13-38.57 119.13-13.26Q121.16-14.72 123.12-16.48 125.09-18.24 126.87-20.18 128.65-22.12 130.18-24.15 131.71-26.17 132.85-28.2L132.85-28.2 138.47-28.2Q136.76-25.32 134.42-22.45 132.07-19.58 129.31-16.97L129.31-16.97 138.57 0 129.46 0 122.89-11.77Q121.06-10.52 119.13-9.47L119.13-9.47ZM176.85-16.82L176.85-16.82 176.85-16.36Q176.8-14.31 176.42-12.11 176.04-9.91 175.36-7.71 174.67-5.52 173.72-3.37 172.77-1.22 171.58 0.74 170.4 2.71 169.03 4.43 167.67 6.15 166.15 7.47L166.15 7.47 162.51 5.37Q163.37 3.93 164.06 2.23 164.76 0.54 165.32-1.32 165.88-3.17 166.29-5.13 166.69-7.08 166.96-9.01 167.23-10.94 167.36-12.81 167.49-14.67 167.49-16.36L167.49-16.36Q167.49-17.68 167.48-19.35 167.47-21.02 167.29-22.75 167.1-24.49 166.69-26.14 166.27-27.78 165.46-29.08 164.64-30.37 163.36-31.15 162.07-31.93 160.17-31.93L160.17-31.93Q158.49-31.93 157.28-31.36 156.07-30.79 155.23-29.82 154.38-28.86 153.88-27.59 153.38-26.32 153.1-24.91 152.82-23.51 152.74-22.08 152.65-20.65 152.65-19.38L152.65-19.38 152.65-12.57 163.17-12.57 163.17-8.54 152.65-8.54 152.65 0 142.96 0 142.96-17.87Q142.96-21.7 144.18-25 145.4-28.3 147.63-30.73 149.87-33.15 153.01-34.53 156.14-35.91 160-35.91L160-35.91Q162.61-35.91 164.89-35.17 167.18-34.42 169.06-33.12 170.94-31.81 172.41-30.02 173.89-28.22 174.88-26.1 175.87-23.97 176.38-21.61 176.89-19.24 176.85-16.82ZM212.22-14.16L212.22-14.16Q212.22-11.08 211.29-8.4 210.36-5.71 208.61-3.72 206.85-1.73 204.31-0.59 201.77 0.56 198.55 0.56L198.55 0.56Q196.08 0.56 194.02-0.4 191.96-1.37 190.49-3.37L190.49-3.37 190.49 13.01 182.24 13.01 182.24-28.2 185.41-28.2 189.07-22.07Q189.61-23.61 190.55-24.87 191.49-26.12 192.72-27.01 193.96-27.91 195.43-28.39 196.91-28.88 198.55-28.88L198.55-28.88Q201.77-28.88 204.31-27.73 206.85-26.59 208.61-24.6 210.36-22.61 211.29-19.92 212.22-17.24 212.22-14.16ZM203.84-14.16L203.84-14.16Q203.84-15.23 203.74-16.44 203.63-17.65 203.36-18.85 203.09-20.04 202.61-21.14 202.14-22.24 201.4-23.08 200.67-23.93 199.63-24.43 198.6-24.93 197.23-24.93L197.23-24.93Q195.81-24.93 194.78-24.44 193.74-23.95 192.99-23.11 192.25-22.27 191.77-21.18 191.3-20.09 191.03-18.9 190.76-17.7 190.65-16.48 190.54-15.26 190.54-14.16L190.54-14.16Q190.54-13.18 190.69-12 190.83-10.82 191.15-9.62 191.47-8.42 191.98-7.3 192.49-6.18 193.24-5.3 193.98-4.42 194.97-3.89 195.96-3.37 197.23-3.37L197.23-3.37Q198.62-3.37 199.65-3.87 200.67-4.37 201.4-5.21 202.14-6.05 202.61-7.15 203.09-8.25 203.36-9.45 203.63-10.64 203.74-11.87 203.84-13.09 203.84-14.16ZM247.49-14.16L247.49-14.16Q247.49-11.08 246.57-8.4 245.64-5.71 243.88-3.72 242.12-1.73 239.58-0.59 237.05 0.56 233.82 0.56L233.82 0.56Q231.36 0.56 229.29-0.4 227.23-1.37 225.77-3.37L225.77-3.37 225.77 13.01 217.51 13.01 217.51-28.2 220.69-28.2 224.35-22.07Q224.89-23.61 225.83-24.87 226.77-26.12 228-27.01 229.23-27.91 230.71-28.39 232.19-28.88 233.82-28.88L233.82-28.88Q237.05-28.88 239.58-27.73 242.12-26.59 243.88-24.6 245.64-22.61 246.57-19.92 247.49-17.24 247.49-14.16ZM239.12-14.16L239.12-14.16Q239.12-15.23 239.01-16.44 238.9-17.65 238.63-18.85 238.36-20.04 237.89-21.14 237.41-22.24 236.68-23.08 235.95-23.93 234.91-24.43 233.87-24.93 232.5-24.93L232.5-24.93Q231.09-24.93 230.05-24.44 229.01-23.95 228.27-23.11 227.52-22.27 227.05-21.18 226.57-20.09 226.3-18.9 226.03-17.7 225.92-16.48 225.82-15.26 225.82-14.16L225.82-14.16Q225.82-13.18 225.96-12 226.11-10.82 226.43-9.62 226.74-8.42 227.26-7.3 227.77-6.18 228.51-5.3 229.26-4.42 230.25-3.89 231.24-3.37 232.5-3.37L232.5-3.37Q233.9-3.37 234.92-3.87 235.95-4.37 236.68-5.21 237.41-6.05 237.89-7.15 238.36-8.25 238.63-9.45 238.9-10.64 239.01-11.87 239.12-13.09 239.12-14.16Z" opacity="1" transform="matrix(1,0,0,1,0,0)" fill="#ffffff" class="wordmark-text-0" data-fill-palette-color="quaternary" id="text-0"></path></svg></g></svg></g></svg></g></svg></g><g transform="matrix(1,0,0,1,73.5966754611449,0)"><svg viewBox="0 0 65.96509030486732 62.40180778792405" height="62.40180778792405" width="65.96509030486732"><g><svg xmlns="http://www.w3.org/2000/svg" xmlns:xlink="http://www.w3.org/1999/xlink" version="1.1" x="0" y="0" viewBox="0.005 2.7035 99.995 94.59349999999999" enable-background="new 0 0 100 100" xml:space="preserve" height="62.40180778792405" width="65.96509030486732" class="icon-icon-0" data-fill-palette-color="quaternary" id="icon-0"><path d="M98.764 24.607L51.238 2.936C50.555 2.626 49.448 2.626 48.766 2.936L1.241 24.607C0.558 24.919 0.005 25.775 0.005 26.522V36.448H9.46V81.081C9.46 81.828 10.065 82.433 10.812 82.433H24.325C25.072 82.433 25.677 81.829 25.677 81.081V36.448H41.893V81.081C41.893 81.828 42.498 82.433 43.244 82.433H56.758C57.505 82.433 58.11 81.829 58.11 81.081V36.448H74.326V81.081A1.35 1.35 0 0 0 75.677 82.433H89.192C89.939 82.433 90.544 81.829 90.544 81.081V36.448H100V26.522C100 25.776 99.447 24.919 98.764 24.607" fill="#ffffff" data-fill-palette-color="quaternary"></path><path d="M94.595 97.297H5.405A5.406 5.406 0 0 1 5.405 86.487H94.594A5.406 5.406 0 0 1 99.999 91.892 5.404 5.404 0 0 1 94.595 97.297" fill="#ffffff" data-fill-palette-color="quaternary"></path></svg></g></svg></g><g></g></svg></g></svg></g></svg></g></svg></g><defs></defs></svg><rect width="342.85155851775386" height="342.85155851775386" fill="none" stroke="none" visibility="hidden"></rect></g></svg></g></svg>